<?xml version="1.0" standalone="no"?>
<!DOCTYPE svg PUBLIC "-//W3C//DTD SVG 20010904//EN"
 "http://www.w3.org/TR/2001/REC-SVG-20010904/DTD/svg10.dtd">
<svg version="1.0" xmlns="http://www.w3.org/2000/svg"
 width="750.000000pt" height="170.000000pt" viewBox="0 0 750.000000 170.000000"
 preserveAspectRatio="xMidYMid meet">
<metadata>
Created by potrace 1.11, written by Peter Selinger 2001-2013
</metadata>
<g transform="translate(0.000000,170.000000) scale(0.100000,-0.100000)"
fill="#455461" stroke="none">
<path d="M370 1345 l0 -325 -30 0 -30 0 0 -120 0 -120 590 0 590 0 0 120 0
120 -30 0 -30 0 0 145 0 145 -175 0 -175 0 0 180 0 180 -355 0 -355 0 0 -325z
m590 175 l0 -30 -205 0 -205 0 0 30 0 30 205 0 205 0 0 -30z m0 -180 l0 -30
-205 0 -205 0 0 30 0 30 205 0 205 0 0 -30z m298 -177 l-3 -28 -330 -2 c-181
-1 -340 0 -352 3 -16 3 -23 12 -23 29 l0 25 356 0 355 0 -3 -27z"/>
<path d="M1140 1515 l0 -145 147 0 148 0 -145 145 c-80 80 -146 145 -147 145
-2 0 -3 -65 -3 -145z"/>
<path d="M5940 1177 c-30 -7 -72 -21 -92 -31 -149 -72 -230 -256 -200 -457 31
-217 179 -338 414 -339 280 0 437 178 415 471 -14 172 -107 301 -252 345 -69
21 -217 27 -285 11z m195 -197 c27 -13 50 -34 66 -63 21 -37 24 -54 24 -147 0
-121 -17 -170 -74 -207 -43 -29 -121 -31 -171 -5 -72 39 -107 167 -81 295 26
123 129 179 236 127z"/>
<path d="M2313 1158 c3 -13 42 -187 87 -388 44 -201 83 -373 86 -382 5 -16 20
-18 127 -18 l122 0 28 103 c68 251 110 397 114 394 2 -2 34 -114 71 -248 l68
-244 124 0 124 0 82 375 c46 206 86 387 89 403 l7 27 -119 0 -119 0 -38 -207
c-22 -115 -42 -213 -45 -220 -3 -7 -33 86 -66 205 l-60 217 -120 0 -120 0 -59
-217 c-33 -120 -61 -216 -63 -214 -4 4 -83 410 -83 426 0 6 -51 10 -121 10
-121 0 -121 0 -116 -22z"/>
<path d="M4020 1105 l0 -75 110 0 110 0 0 75 0 75 -110 0 -110 0 0 -75z"/>
<path d="M4538 1124 l-108 -56 0 -54 0 -54 -40 0 -40 0 0 -80 0 -80 39 0 39 0
3 -162 c4 -179 13 -207 72 -252 25 -18 42 -21 130 -21 56 0 114 3 130 8 25 7
27 10 22 50 -16 116 -11 108 -55 101 -65 -11 -70 -1 -70 147 l0 129 60 0 60 0
0 80 0 80 -60 0 -60 0 0 110 c0 61 -3 110 -7 110 -5 -1 -56 -26 -115 -56z"/>
<path d="M70 900 l0 -120 90 0 91 0 -3 118 -3 117 -87 3 -88 3 0 -121z"/>
<path d="M1550 900 l0 -120 90 0 90 0 0 120 0 120 -90 0 -90 0 0 -120z"/>
<path d="M3798 954 c-15 -8 -39 -31 -53 -52 l-25 -37 0 48 0 47 -105 0 -105 0
0 -295 0 -295 114 0 114 0 4 173 c3 149 6 176 22 204 23 38 58 52 104 42 l34
-7 34 75 c18 41 31 79 29 84 -8 12 -74 29 -110 29 -16 -1 -42 -7 -57 -16z"/>
<path d="M5060 954 c-136 -49 -208 -165 -198 -315 6 -78 33 -141 85 -194 55
-56 112 -77 223 -83 150 -7 251 27 317 109 46 55 44 56 -71 64 -97 7 -107 6
-135 -14 -66 -47 -149 -31 -176 33 -8 20 -15 40 -15 46 0 6 77 10 226 10 l227
0 -7 72 c-12 126 -71 219 -166 261 -62 28 -245 35 -310 11z m184 -124 c28 -10
51 -42 61 -82 l7 -28 -112 0 -112 0 7 28 c18 76 78 109 149 82z"/>
<path d="M4020 665 l0 -295 110 0 110 0 0 295 0 295 -110 0 -110 0 0 -295z"/>
<path d="M6949 951 c-42 -14 -72 -32 -106 -64 l-33 -31 0 47 0 47 -105 0 -105
0 0 -295 0 -295 115 0 115 0 0 175 c0 220 9 245 91 245 16 0 38 -9 49 -20 19
-19 20 -33 20 -210 l0 -190 116 0 115 0 -3 233 c-3 225 -4 233 -28 275 -33 59
-77 84 -153 88 -34 2 -74 0 -88 -5z"/>
<path d="M217 713 c-3 -5 -37 -99 -77 -211 -80 -223 -81 -235 -38 -334 22 -53
65 -95 131 -130 l42 -23 599 -3 c664 -3 664 -3 748 61 52 40 84 93 99 167 13
61 18 39 -84 325 l-54 150 -247 3 -247 2 -23 -27 -24 -28 -142 0 -142 0 -23
28 -24 27 -245 0 c-135 0 -247 -3 -249 -7z m232 -188 c38 -19 44 -39 22 -66
-15 -19 -31 -24 -85 -27 -74 -5 -122 10 -131 40 -7 21 9 46 40 58 33 14 124
11 154 -5z m372 -12 c45 -44 -2 -83 -99 -83 -71 0 -106 17 -110 52 -5 40 36
59 121 55 52 -2 72 -7 88 -24z m328 16 c39 -14 58 -44 40 -66 -43 -51 -208
-45 -224 9 -7 21 9 46 40 58 29 13 107 12 144 -1z m382 -16 c44 -44 -5 -85
-100 -85 -67 1 -105 20 -109 54 -5 40 36 59 121 55 52 -2 72 -7 88 -24z m-901
-167 c32 -14 37 -47 10 -71 -26 -23 -115 -32 -164 -15 -41 13 -59 52 -34 76
30 30 131 36 188 10z m710 0 c16 -7 26 -21 28 -39 3 -23 -2 -30 -32 -42 -61
-26 -167 -15 -188 18 -40 63 95 107 192 63z m-340 -12 c41 -41 -11 -84 -102
-84 -57 0 -118 28 -118 54 0 8 12 24 28 36 23 19 37 21 99 18 57 -3 77 -8 93
-24z"/>
</g>
</svg>
