<?xml version="1.0" encoding="utf-8"?>
<!-- Generator: Adobe Illustrator 18.1.0, SVG Export Plug-In . SVG Version: 6.00 Build 0)  -->
<!DOCTYPE svg PUBLIC "-//W3C//DTD SVG 1.1//EN" "http://www.w3.org/Graphics/SVG/1.1/DTD/svg11.dtd">
<svg version="1.1" id="Layer_1" xmlns="http://www.w3.org/2000/svg" xmlns:xlink="http://www.w3.org/1999/xlink" x="0px" y="0px"
	 viewBox="0 0 125 59" style="enable-background:new 0 0 125 59;" xml:space="preserve">
<style type="text/css">
	.st0{fill:#C0392B;}
	.st1{fill:#34495E;}
</style>
<g>
	<path class="st0" d="M12.5,14.1l5.2,20h0.1l5.6-20H26l5.6,20h0.1l5.2-20h2.2L32.8,37h-2.3l-5.8-20.4h-0.1L18.9,37h-2.4l-6.3-22.8
		H12.5z"/>
	<path class="st0" d="M42.4,20.5v3.9h0.1c0.5-1.3,1.3-2.4,2.4-3.1c1.1-0.7,2.4-1.1,3.9-1v2c-0.9,0-1.7,0.1-2.5,0.4
		c-0.7,0.3-1.4,0.7-1.9,1.2c-0.5,0.5-1,1.2-1.3,1.9c-0.3,0.7-0.4,1.5-0.4,2.4V37h-2V20.5H42.4z"/>
	<path class="st0" d="M52.7,14.1v3.2h-2v-3.2H52.7z M52.7,20.5V37h-2V20.5H52.7z"/>
	<path class="st0" d="M63.1,20.5v1.7h-3.4v11.1c0,0.7,0.1,1.2,0.3,1.6c0.2,0.4,0.6,0.6,1.4,0.6c0.6,0,1.2,0,1.7-0.1v1.7
		c-0.3,0-0.6,0-0.9,0c-0.3,0-0.6,0-0.9,0c-1.3,0-2.3-0.3-2.8-0.8c-0.5-0.5-0.8-1.5-0.8-2.9V22.2h-2.9v-1.7h2.9v-5h2v5H63.1z"/>
	<path class="st0" d="M67.5,31.5c0.2,0.8,0.5,1.5,1,2.1c0.4,0.6,1,1.1,1.7,1.5c0.7,0.4,1.5,0.6,2.5,0.6c1.5,0,2.6-0.4,3.5-1.2
		s1.4-1.8,1.7-3.1h2c-0.4,1.9-1.2,3.3-2.4,4.4c-1.1,1-2.8,1.5-4.8,1.5c-1.3,0-2.4-0.2-3.4-0.7c-0.9-0.5-1.7-1.1-2.3-1.9
		c-0.6-0.8-1-1.7-1.3-2.8c-0.3-1.1-0.4-2.2-0.4-3.3c0-1.1,0.1-2.2,0.4-3.2c0.3-1,0.7-2,1.3-2.8c0.6-0.8,1.4-1.5,2.3-2
		c0.9-0.5,2.1-0.8,3.4-0.8c1.3,0,2.5,0.3,3.4,0.8c0.9,0.5,1.7,1.2,2.3,2.1c0.6,0.9,1,1.9,1.3,3c0.3,1.1,0.4,2.3,0.3,3.4H67.2
		C67.2,30,67.3,30.7,67.5,31.5z M77.5,25.4c-0.2-0.7-0.6-1.3-1-1.9c-0.4-0.5-1-1-1.6-1.3c-0.6-0.3-1.4-0.5-2.2-0.5
		c-0.8,0-1.6,0.2-2.2,0.5s-1.2,0.8-1.6,1.3c-0.4,0.5-0.8,1.2-1.1,1.9c-0.3,0.7-0.4,1.4-0.5,2.2h10.7C77.9,26.8,77.7,26.1,77.5,25.4z
		"/>
	<path class="st1" d="M92.9,20.7c1,0.5,1.8,1.1,2.4,1.9c0.7,0.8,1.2,1.7,1.5,2.8c0.3,1.1,0.5,2.2,0.5,3.4s-0.2,2.3-0.5,3.4
		c-0.3,1.1-0.8,2-1.5,2.8c-0.7,0.8-1.5,1.4-2.4,1.9c-1,0.5-2.1,0.7-3.3,0.7c-1.3,0-2.4-0.2-3.3-0.7s-1.8-1.1-2.4-1.9
		c-0.7-0.8-1.2-1.7-1.5-2.8c-0.3-1.1-0.5-2.2-0.5-3.4s0.2-2.3,0.5-3.4c0.3-1.1,0.8-2,1.5-2.8c0.7-0.8,1.5-1.4,2.4-1.9
		c1-0.5,2.1-0.7,3.3-0.7C90.9,20,92,20.2,92.9,20.7z M87.1,22.3c-0.7,0.4-1.3,0.9-1.8,1.6c-0.5,0.7-0.8,1.4-1.1,2.3
		c-0.2,0.8-0.4,1.7-0.4,2.6c0,0.9,0.1,1.7,0.4,2.6c0.2,0.8,0.6,1.6,1.1,2.3s1.1,1.2,1.8,1.6c0.7,0.4,1.6,0.6,2.5,0.6
		s1.8-0.2,2.5-0.6c0.7-0.4,1.3-0.9,1.8-1.6s0.8-1.4,1.1-2.3c0.2-0.8,0.4-1.7,0.4-2.6c0-0.9-0.1-1.7-0.4-2.6
		c-0.2-0.8-0.6-1.6-1.1-2.3c-0.5-0.7-1.1-1.2-1.8-1.6c-0.7-0.4-1.6-0.6-2.5-0.6S87.8,21.9,87.1,22.3z"/>
	<path class="st1" d="M102.4,20.5v2.8h0.1c0.4-1,1.1-1.8,2-2.4s2.1-0.9,3.2-0.9c1.2,0,2.1,0.1,2.9,0.4c0.8,0.3,1.4,0.7,1.9,1.3
		c0.5,0.5,0.8,1.2,1,2c0.2,0.8,0.3,1.7,0.3,2.7V37h-2V26.7c0-0.7-0.1-1.4-0.2-2s-0.4-1.1-0.7-1.6c-0.3-0.4-0.8-0.8-1.3-1.1
		c-0.5-0.3-1.2-0.4-2-0.4s-1.5,0.1-2.2,0.4c-0.6,0.3-1.2,0.7-1.6,1.2c-0.4,0.5-0.8,1.1-1,1.8c-0.2,0.7-0.4,1.4-0.4,2.3V37h-2V20.5
		H102.4z"/>
</g>
<g>
	<path class="st0" d="M11.5,42.9v-1.7h20.2v1.7H11.5z M11.5,49.1v-1.7h20.2v1.7H11.5z"/>
	<path class="st0" d="M35.6,42.9v-1.7h20.2v1.7H35.6z M35.6,49.1v-1.7h20.2v1.7H35.6z"/>
	<path class="st0" d="M59.7,42.9v-1.7h20.2v1.7H59.7z M59.7,49.1v-1.7h20.2v1.7H59.7z"/>
</g>
</svg>
